<svg width="646" height="646" viewBox="0 0 646 646" fill="none" xmlns="http://www.w3.org/2000/svg">
<circle cx="323" cy="323" r="323" fill="white"/>
<rect width="205.246" height="638.699" rx="78" transform="matrix(-0.00421272 -0.999991 -0.999991 0.00421272 642.19 423.649)" fill="#EBDAFC"/>
<rect x="218.403" width="206.562" height="646" rx="78.5" fill="#EBDAFC"/>
<path d="M323 1.5C500.56 1.5 644.5 145.44 644.5 323C644.5 500.56 500.56 644.5 323 644.5C145.44 644.5 1.50002 500.56 1.5 323C1.5 145.44 145.44 1.5 323 1.5Z" stroke="#5734FA" stroke-width="3"/>
<path d="M417.767 164.633C434.512 170.752 466.612 159.762 482.45 155.39C498.288 151.018 577.845 130.061 577.845 130.061M136.175 183.537C136.175 183.537 182.267 113.836 189.062 107.995C195.857 102.154 270.684 69.2309 298.488 69.152C326.291 69.0731 424.486 108.135 424.486 108.135C446.584 114.293 475.549 101.142 479.752 98.9167C483.955 96.6914 526.96 75.9455 526.96 75.9455M417.953 148.846C417.953 148.846 328.156 120.158 314.713 119.342C301.27 118.526 230.427 136.771 226.361 139.355C222.295 141.939 196.735 168.226 175.988 190.077C155.242 211.928 148.243 204.224 146.272 200.254C144.301 196.283 146.334 194.991 146.334 194.991" stroke="#5734FA"/>
<path d="M158.361 180.733C158.003 181.013 157.491 181.416 156.877 181.907C155.649 182.889 154.012 184.222 152.379 185.626C150.744 187.033 149.123 188.503 147.918 189.761C147.315 190.392 146.827 190.957 146.496 191.427C146.331 191.662 146.213 191.863 146.138 192.027C146.1 192.112 146.076 192.178 146.063 192.228L146.049 192.329C146.067 192.868 146.19 193.736 146.475 194.618C146.761 195.507 147.194 196.356 147.799 196.91C148.379 197.443 149.132 197.723 150.164 197.478C151.168 197.24 152.47 196.497 154.116 194.912L154.45 194.584C158.015 191.006 158.925 187.378 158.959 184.656C158.977 183.29 158.774 182.146 158.567 181.345C158.504 181.102 158.44 180.892 158.382 180.717C158.376 180.722 158.368 180.727 158.361 180.733Z" stroke="#5734FA"/>
<path d="M157.223 182.881C157.223 182.881 204.404 118.704 207.118 116.762C209.831 114.82 301.013 82.9988 301.013 82.9988" stroke="#5734FA"/>
<path d="M136.973 181.379C136.615 181.659 136.103 182.062 135.489 182.553C134.26 183.535 132.623 184.868 130.991 186.272C129.356 187.679 127.734 189.149 126.53 190.407C125.926 191.038 125.438 191.603 125.107 192.073C124.942 192.308 124.824 192.509 124.75 192.673C124.711 192.758 124.688 192.824 124.675 192.874L124.66 192.975C124.678 193.514 124.801 194.382 125.086 195.264C125.373 196.153 125.806 197.002 126.411 197.556C126.99 198.089 127.743 198.369 128.775 198.124C129.78 197.886 131.081 197.143 132.728 195.558L133.061 195.23C136.627 191.652 137.536 188.024 137.571 185.302C137.588 183.936 137.386 182.792 137.179 181.991C137.116 181.748 137.051 181.538 136.994 181.363C136.987 181.368 136.98 181.373 136.973 181.379Z" stroke="#5734FA"/>
<path d="M146.262 200.913C146.262 200.913 134.728 209.33 128.737 203.996C122.746 198.662 125.475 195.405 125.475 195.405" stroke="#5734FA"/>
<path d="M152.271 204.932C152.271 204.932 144.795 211.423 139.392 213.333C133.988 215.243 129.327 211.241 129.327 211.241M431.868 166.775C431.868 166.775 425.049 174.59 398.147 174.273C371.245 173.956 325.141 147.735 302.985 144.206C280.83 140.677 210.774 149.964 210.722 153.647" stroke="#5734FA"/>
<path d="M136.121 205.399C136.121 205.399 132.016 211.272 129.325 211.24C126.635 211.209 126.017 206.596 126.025 205.938C126.032 205.281 128.073 203.331 128.073 203.331" stroke="#5734FA"/>
<path d="M234.321 307.212C240.899 340.762 326.419 405.888 326.419 405.888C326.419 405.888 404.044 336.157 411.281 307.212C418.517 278.267 411.281 239.455 369.179 239.455C327.077 239.455 326.419 294.713 326.419 294.713C326.419 294.713 322.472 239.455 283.001 239.455C243.531 239.455 227.743 273.662 234.321 307.212Z" fill="#FA34C2" stroke="#FA34C2" stroke-width="2"/>
<path d="M241.366 505.014C226.316 499.593 197.467 509.32 183.233 513.19C168.999 517.06 97.5002 535.607 97.5002 535.607M494.447 488.316C494.447 488.316 453.032 550.036 446.926 555.208C440.819 560.38 360.069 589.726 348.584 589.591C337.1 589.455 235.336 555.048 235.336 555.048C215.475 549.591 189.444 561.233 185.667 563.203C181.89 565.173 143.241 583.539 143.241 583.539M241.201 518.995C241.201 518.995 321.911 544.415 333.994 545.14C346.076 545.865 409.744 529.718 413.398 527.43C417.052 525.143 440.02 501.866 458.663 482.518C477.306 463.17 483.597 469.994 485.369 473.511C487.141 477.027 485.314 478.171 485.314 478.171" stroke="#5734FA"/>
<path d="M475.81 489.713C476.914 488.844 478.383 487.664 479.85 486.422C481.318 485.177 482.774 483.876 483.855 482.764C484.396 482.207 484.832 481.708 485.126 481.296C485.274 481.089 485.378 480.916 485.443 480.775C485.477 480.702 485.495 480.647 485.505 480.608L485.517 480.535C485.5 480.063 485.39 479.299 485.136 478.523C484.88 477.74 484.495 476.997 483.96 476.514C483.449 476.052 482.788 475.809 481.877 476.022C480.988 476.229 479.827 476.88 478.352 478.279L478.053 478.569C474.862 481.725 474.05 484.921 474.019 487.318C474.004 488.521 474.186 489.53 474.372 490.235C474.42 490.419 474.468 490.583 474.513 490.723C474.833 490.477 475.279 490.131 475.81 489.713Z" stroke="#5734FA"/>
<path d="M475.527 488.895C475.527 488.895 433.132 545.723 430.694 547.442C428.256 549.161 346.31 577.328 346.31 577.328" stroke="#5734FA"/>
<path d="M495.036 489.147C496.14 488.277 497.609 487.098 499.076 485.855C500.544 484.61 502 483.31 503.081 482.197C503.622 481.64 504.058 481.142 504.352 480.729C504.5 480.523 504.604 480.349 504.669 480.209C504.702 480.136 504.721 480.081 504.731 480.041L504.743 479.969C504.726 479.497 504.616 478.733 504.362 477.956C504.106 477.174 503.72 476.431 503.186 475.947C502.675 475.486 502.013 475.243 501.103 475.455C500.214 475.663 499.053 476.313 497.578 477.712L497.279 478.003C494.088 481.158 493.276 484.355 493.245 486.751C493.23 487.955 493.412 488.963 493.598 489.668C493.646 489.853 493.694 490.016 493.739 490.157C494.059 489.91 494.505 489.565 495.036 489.147Z" stroke="#5734FA"/>
<path d="M485.377 472.927C485.377 472.927 495.742 465.475 501.128 470.199C506.513 474.924 504.061 477.808 504.061 477.808" stroke="#5734FA"/>
<path d="M479.978 469.368C479.978 469.368 486.695 463.621 491.552 461.93C496.408 460.239 500.598 463.784 500.598 463.784M228.693 503.116C228.693 503.116 234.82 496.197 258.999 496.481C283.177 496.766 324.618 519.995 344.531 523.123C364.444 526.252 427.406 518.038 427.452 514.777" stroke="#5734FA"/>
<path d="M494.492 468.956C494.492 468.956 498.18 463.756 500.598 463.785C503.016 463.813 503.572 467.898 503.566 468.481C503.559 469.063 501.725 470.789 501.725 470.789" stroke="#5734FA"/>
</svg>
